# xmcd
#
# Track frame offsets: 
#        300
#        22233
#        55369
#        84095
#        127092
#        150785
#        193455
#        224494
#        268733
#        299498
#
# Disc length: 4367 seconds
#
# Revision: 2
# Processed by: cddbd v1.5.2PL0 Copyright (c) Steve Scherf et al.
# Submitted via: ExactAudioCopy v1.0b1
#
DISCID=9c110b0a
DTITLE=Albert Collins And The Icebreakers - Sudden Frost
DYEAR=1986
DGENRE=Texas Blues
TTITLE0=Tired Man
TTITLE1=I've Got A Mind To Travel
TTITLE2=Instrumental
TTITLE3=Cold, Cold Feeling
TTITLE4=Woke Up This Morning
TTITLE5=Stormy Monday
TTITLE6=My Guitar Like A Miracle
TTITLE7=Frosty
TTITLE8=Head Rag
TTITLE9=Instrumental
EXTD=
EXTT0=
EXTT1=
EXTT2=
EXTT3=
EXTT4=
EXTT5=
EXTT6=
EXTT7=
EXTT8=
EXTT9=
PLAYORDER=
